# xmcd CD database file
#
# Track frame offsets:
#	150
#	8007
#	17657
#	29317
#	39605
#	51515
#	62787
#	75675
#	86077
#	100682
#	110512
#	121240
#	133432
#	144417
#	155715
#	163877
#	174230
#	184285
#	196555
#	208285
#
# Disc length: 2949 seconds
#
# Revision: 4
# Processed by: cddbd v1.5.2PL0 Copyright (c) Steve Scherf et al.
# Submitted via: jetAudio 5
#
DISCID=180b8314
DTITLE=Various Artist - This Is Country - All Time Country Greats cd 1
DYEAR=1997
DGENRE=Country
TTITLE0=Roger Miller - Do-Wacka-Do
TTITLE1=Jeannie C. Riley - He Made A Woman Out Of Me
TTITLE2=Jerry Wallace - There She Goes
TTITLE3=Johnny Cash - I Heard That Lonesome Whistle Blow
TTITLE4=Webb Pierce - High Geared Daddy
TTITLE5=Carl Belew - Little Miss Heartache
TTITLE6=Faron Young - I'm A Free Man Now
TTITLE7=Jerry Lee Lewis - Will The Circle Be Unbroken
TTITLE8=George Jones - Cold Cold Heart
TTITLE9=Johnny Cash - Get Rhythm
TTITLE10=Hank Locklin - Crazy Over You
TTITLE11=Johnny Horton - Done Rovin'
TTITLE12=Glen Campbell - The Man With The Golden Gun
TTITLE13=Patsy Cline - In Care Of The Blues
TTITLE14=Roger Miller - Dear Heart
TTITLE15=Dave Dudley - Seven Lonely Days
TTITLE16=Johnny Cash - There You Go
TTITLE17=Red Simpson - Roll, Truck, Roll
TTITLE18=T.Texas Tyler - Remember Me
TTITLE19=Leroy van Dyke - Auctioneer
EXTD=YEAR: 1997
EXTT0=
EXTT1=
EXTT2=
EXTT3=
EXTT4=
EXTT5=
EXTT6=
EXTT7=
EXTT8=
EXTT9=
EXTT10=
EXTT11=
EXTT12=
EXTT13=
EXTT14=
EXTT15=
EXTT16=
EXTT17=
EXTT18=
EXTT19=
PLAYORDER=
